<svg width="89" height="17" viewBox="0 0 89 17" fill="none" xmlns="http://www.w3.org/2000/svg">
<path d="M10.2031 0.5C5.79513 0.5 2.20312 4.092 2.20312 8.5C2.20312 12.908 5.79513 16.5 10.2031 16.5C14.6111 16.5 18.2031 12.9133 18.2031 8.5C18.2031 4.092 14.6165 0.5 10.2031 0.5Z" fill="#00A568"/>
<path d="M27.5371 0.5C23.1291 0.5 19.5371 4.092 19.5371 8.5C19.5371 12.908 23.1291 16.5 27.5371 16.5C31.9451 16.5 35.5371 12.9133 35.5371 8.5C35.5371 4.092 31.9504 0.5 27.5371 0.5Z" fill="#00A568"/>
<path d="M44.8701 0.5C40.4621 0.5 36.8701 4.092 36.8701 8.5C36.8701 12.908 40.4621 16.5 44.8701 16.5C49.2781 16.5 52.8701 12.9133 52.8701 8.5C52.8701 4.092 49.2835 0.5 44.8701 0.5Z" fill="#00A568"/>
<path d="M62.2031 0.5C57.7951 0.5 54.2031 4.092 54.2031 8.5C54.2031 12.908 57.7951 16.5 62.2031 16.5C66.6111 16.5 70.2031 12.9133 70.2031 8.5C70.2031 4.092 66.6165 0.5 62.2031 0.5Z" fill="#00A568"/>
<path d="M79.5371 0.5C75.1298 0.5 71.5371 4.09267 71.5371 8.5C71.5371 12.9133 75.1298 16.5 79.5371 16.5C83.9504 16.5 87.5371 12.914 87.5371 8.5C87.5371 4.086 83.9511 0.5 79.5371 0.5ZM79.5371 1.83333C80.413 1.83193 81.2805 2.00341 82.09 2.33794C82.8995 2.67248 83.635 3.16349 84.2543 3.78282C84.8736 4.40216 85.3646 5.13764 85.6992 5.94712C86.0337 6.75659 86.2052 7.62413 86.2038 8.5C86.2059 9.37607 86.0349 10.2439 85.7006 11.0537C85.3663 11.8635 84.8753 12.5993 84.2559 13.2188C83.6364 13.8382 82.9006 14.3292 82.0908 14.6635C81.281 14.9978 80.4132 15.1688 79.5371 15.1667V1.83333Z" fill="#00A568"/>
</svg>
